<?xml version="1.0" encoding="UTF-8" standalone="no"?> <svg xmlns:dc="http://purl.org/dc/elements/1.1/" xmlns:cc="http://creativecommons.org/ns#" xmlns:rdf="http://www.w3.org/1999/02/22-rdf-syntax-ns#" xmlns:svg="http://www.w3.org/2000/svg" xmlns="http://www.w3.org/2000/svg" viewBox="0 0 145.57333 20.52" height="20.52" width="145.57333" xml:space="preserve" id="svg2" version="1.1"><metadata id="metadata8"></metadata><defs id="defs6"></defs><g transform="matrix(1.3333333,0,0,-1.3333333,0,20.52)" id="g10"><g transform="scale(0.1)" id="g12"><path id="path14" style="fill:#5dc2bf;fill-opacity:1;fill-rule:nonzero;stroke:none" d="M 132.352,128.777 107.531,44.9648 h 49.641 z"></path><path id="path16" style="fill:#5dc2bf;fill-opacity:1;fill-rule:nonzero;stroke:none" d="M 396.809,128.777 371.988,44.9648 h 49.637 z"></path><path id="path18" style="fill:#5dc2bf;fill-opacity:1;fill-rule:nonzero;stroke:none" d="M 173.668,153.922 231.574,3.07031 V 153.922 Z"></path><path id="path20" style="fill:#5dc2bf;fill-opacity:1;fill-rule:nonzero;stroke:none" d="M 297.68,153.922 V 3.07031 L 355.563,153.922 Z"></path><path id="path22" style="fill:#5dc2bf;fill-opacity:1;fill-rule:nonzero;stroke:none" d="M -0.00390625,19.5938 C 36.5977,19.5938 66.2656,49.6719 66.2656,86.7656 c 0,37.0894 -29.6679,67.1564 -66.26950625,67.1564"></path><path id="path24" style="fill:#1b1819;fill-opacity:1;fill-rule:nonzero;stroke:none" d="m 473.352,57.6211 c 0.128,-19.6797 13.691,-43.6133 43.339,-43.6133 19.141,0 33.098,11.3086 39.082,26.6797 2.415,5.4492 3.547,11.4453 3.547,17.4805 0.125,6.0625 -0.988,12.1093 -3.359,17.4804 -6.035,15.1055 -20.539,26.1996 -39.727,26.1996 -24.882,0 -42.882,-19.4535 -42.882,-44.0121 z M 573.742,3.07031 H 558.918 V 25.793 C 550.473,9.20313 534.047,0.00390625 514.633,0.00390625 c -35.129,0 -56.106,27.74219375 -56.106,57.97659375 0,32.1797 23.254,57.8715 56.106,57.8715 23.289,0 39.062,-13.731 44.285,-26.1293 v 23.0823 h 14.824 V 3.07031"></path><path id="path26" style="fill:#1b1819;fill-opacity:1;fill-rule:nonzero;stroke:none" d="m 601.781,3.07813 h 14.824 V 153.922 H 601.781 V 3.07813"></path><path id="path28" style="fill:#1b1819;fill-opacity:1;fill-rule:nonzero;stroke:none" d="M 652.844,153.922 V 112.816 H 631.652 V 100.75 h 21.192 V 3.08984 h 14.824 V 100.75 h 23.633 v 12.066 h -23.633 v 41.106 h -14.824"></path><path id="path30" style="fill:#1b1819;fill-opacity:1;fill-rule:nonzero;stroke:none" d="m 710.793,57.6211 c 0.137,-19.6797 13.691,-43.6133 43.352,-43.6133 19.128,0 33.093,11.3086 39.07,26.6797 2.414,5.4492 3.566,11.4453 3.547,17.4805 0.136,6.0625 -0.989,12.1093 -3.352,17.4804 -6.043,15.1055 -20.547,26.1996 -39.734,26.1996 -24.895,0 -42.883,-19.4535 -42.883,-44.0121 z M 811.195,3.07031 H 796.371 V 25.793 C 787.922,9.20313 771.488,0.00390625 752.082,0.00390625 716.957,0.00390625 695.98,27.7461 695.98,57.9805 c 0,32.1797 23.25,57.8715 56.102,57.8715 23.281,0 39.063,-13.731 44.289,-26.1293 v 23.0823 h 14.824 V 3.07031"></path><path id="path32" style="fill:#1b1819;fill-opacity:1;fill-rule:nonzero;stroke:none" d="m 839.164,112.801 h 14.188 V 94.8555 c 7.773,16.3325 21.945,20.6015 34.531,21.0075 v -14.968 h -1.485 c -20.867,0 -32.41,-13.2661 -32.41,-38.1567 V 3.07031 H 839.164 V 112.801"></path><path id="path34" style="fill:#1b1819;fill-opacity:1;fill-rule:nonzero;stroke:none" d="m 990.598,65.707 c -1.075,19.2071 -19.356,37.84 -41.766,37.148 -23.34,0 -40.539,-17.1284 -41.875,-37.148 z M 906.684,53.6445 c 0.742,-27.5664 23.964,-40.7031 42.285,-40.5742 16.719,0 30.144,8.3789 37.129,22.6055 H 1001.6 C 996.566,23.8398 988.871,14.8945 979.68,8.91016 970.551,3.01172 959.914,0.0820313 948.832,0.0820313 911.34,0.0820313 891.73,30.4727 891.73,57.6875 c 0,32.1445 24.532,58.1835 57.043,58.1835 15.215,0 29.207,-5.644 39.551,-15.629 12.456,-12.1678 18.446,-29.0779 16.906,-46.5975 h -98.546"></path><path id="path36" style="fill:#1b1819;fill-opacity:1;fill-rule:nonzero;stroke:none" d="m 1074.03,85.2266 c -0.06,11.7109 -7.61,18.2264 -18.54,18.1014 -11.87,0 -19.13,-8.0272 -18.73,-17.6405 0.41,-10.4102 8.24,-14.8164 21.28,-18.5664 15.66,-4.3359 32.95,-8.8359 33.77,-32.3242 0.68,-20.1055 -15.48,-34.79299375 -35.92,-34.79299375 -17.43,0 -36.8,11.16019375 -36.98,34.23829375 h 14.76 c 0.48,-15.0117 11.54,-21.7109 22.37,-21.7109 12.48,0 21.19,9.2578 20.94,20.4882 -0.27,12.5196 -8.38,17.6368 -27.03,23 -15.54,4.6875 -27.61,11.0039 -28.02,28.4453 0,19.7772 15.42,31.3872 33.69,31.3872 15.22,-0.133 32.1,-8.36 33.03,-30.6254 h -14.62"></path></g></g></svg> 